<?xml version="1.0" encoding="iso-8859-1"?><!DOCTYPE svg PUBLIC "-//W3C//DTD SVG 1.1//EN" "http://www.w3.org/Graphics/SVG/1.1/DTD/svg11.dtd"><svg width="104" height="96" viewBox="0 0 104 96" xmlns="http://www.w3.org/2000/svg" xmlns:xlink="http://www.w3.org/1999/xlink"><svg width="20" height="32" viewBox="-5 -5 20 32" id="facebook"><g><path d="M3.478 1.235C4.312.418 5.501.142 6.623.108 7.809.097 8.994.104 10.18.104c.004 1.284.006 2.57-.001 3.854-.768-.002-1.534.001-2.299-.002-.486-.031-.986.346-1.074.842-.012.859-.004 1.719-.004 2.578 1.124.005 2.248-.001 3.371.003a48.707 48.707 0 0 1-.408 3.713c-.993.01-1.986-.001-2.979.005-.009 3.667.005 7.333-.008 11-1.474.006-2.949-.004-4.423.004-.028-3.667.002-7.336-.015-11.003-.72-.008-1.439.006-2.159-.006.004-1.232.002-2.466.002-3.698.719-.007 1.438.003 2.158-.005.021-1.198-.022-2.397.022-3.595.072-.948.424-1.903 1.115-2.559z" fill="#3d599a"/></g></svg><svg width="42" height="32" viewBox="-5 -5 42 32" id="twitter" x="20" y="32"><path d="M20.029 1.021C20.722.502 21.525.101 22.396 0c-.121.517-.614.786-1.046 1.021.65-.19 1.285-.472 1.97-.519.185-.006.444.001.51.212.098.262-.17.467-.374.576-.748.383-1.612.439-2.373.792 1.563-.146 3.124.456 4.311 1.448 1.415 1.155 2.352 2.827 2.691 4.605 1.252.333 2.604.092 3.778-.403-.59 1.326-2.093 1.931-3.468 2.049 1.143.427 2.398.5 3.604.373-.957 1.05-2.437 1.46-3.827 1.428-.578 2.343-1.954 4.445-3.739 6.065-3.473 3.117-8.282 4.611-12.931 4.314C7.036 21.692 2.639 19.509 0 15.887c.23.133.424.317.645.466 2.043 1.466 4.763 1.931 7.193 1.277 1.475-.378 2.812-1.195 3.881-2.262-.683.045-1.443-.075-1.939-.586-.31-.292-.437-.772-.25-1.163.225-.494.725-.775 1.199-.996-1.551.219-3.241-.497-3.956-1.918.524-.619 1.361-.817 2.138-.878-.904-.261-1.834-.581-2.52-1.251a3.325 3.325 0 0 1-1.006-1.942c.64-.118 1.284-.263 1.941-.236-1.49-.768-2.85-2.231-2.731-4 2.824 1.021 5.601 2.186 8.254 3.591.928.506 1.7 1.237 2.458 1.958.734-1.892 1.524-3.792 2.72-5.451.64-.873 1.396-1.685 2.324-2.261-.038.288-.185.537-.322.786z" fill="#4da7de"/></svg><svg width="42" height="32" viewBox="-5 -5 42 32" id="twitterHover" x="62" y="64"><path d="M20.029 1.021C20.722.502 21.525.101 22.396 0c-.121.517-.614.786-1.046 1.021.65-.19 1.285-.472 1.97-.519.185-.006.444.001.51.212.098.262-.17.467-.374.576-.748.383-1.612.439-2.373.792 1.563-.146 3.124.456 4.311 1.448 1.415 1.155 2.352 2.827 2.691 4.605 1.252.333 2.604.092 3.778-.403-.59 1.326-2.093 1.931-3.468 2.049 1.143.427 2.398.5 3.604.373-.957 1.05-2.437 1.46-3.827 1.428-.578 2.343-1.954 4.445-3.739 6.065-3.473 3.117-8.282 4.611-12.931 4.314C7.036 21.692 2.639 19.509 0 15.887c.23.133.424.317.645.466 2.043 1.466 4.763 1.931 7.193 1.277 1.475-.378 2.812-1.195 3.881-2.262-.683.045-1.443-.075-1.939-.586-.31-.292-.437-.772-.25-1.163.225-.494.725-.775 1.199-.996-1.551.219-3.241-.497-3.956-1.918.524-.619 1.361-.817 2.138-.878-.904-.261-1.834-.581-2.52-1.251a3.325 3.325 0 0 1-1.006-1.942c.64-.118 1.284-.263 1.941-.236-1.49-.768-2.85-2.231-2.731-4 2.824 1.021 5.601 2.186 8.254 3.591.928.506 1.7 1.237 2.458 1.958.734-1.892 1.524-3.792 2.72-5.451.64-.873 1.396-1.685 2.324-2.261-.038.288-.185.537-.322.786z" fill="#186593"/></svg></svg>